<svg width="159" height="188" viewBox="0 0 159 188" fill="none" xmlns="http://www.w3.org/2000/svg">
    <path d="M85.5448 153.644L102.433 142.734L102.606 89.1494L85.4036 96.4711L85.8434 153.817L85.5448 153.644ZM3.70202 47.0985L24.1877 58.2962L101.021 9.91226L84.6311 0.953305C83.3969 0.257688 81.9951 -0.0888395 80.5666 -0.0513955C79.1633 0.0647765 77.8002 0.534166 76.6 1.31449L3.86905 47.1257L3.70202 47.0985ZM32.2629 62.7103L52.5413 49.9281L101.46 76.6679L81.1834 89.4509L32.2629 62.7103ZM77.2239 96.6945L77.6638 154.041L58.3774 142.978L57.8484 85.303L77.2239 96.6945ZM20.0741 65.4557L20.6246 129.638C20.5705 130.413 20.731 131.18 21.0878 131.854C21.4445 132.527 21.9831 133.079 22.6419 133.446L77.8881 163.645L77.9954 176.412L78.0853 187.583L4.69121 147.465C3.44015 146.802 2.39218 145.809 1.65254 144.587C0.990818 143.348 0.662517 141.944 0.699978 140.515L0.000144958 54.5565L20.4396 65.729L20.0741 65.4557ZM60.4495 44.7429L80.7435 31.9787L129.664 58.7193L109.369 71.4836L60.4495 44.7429ZM88.7674 26.9812L109.028 14.2272L157.949 40.9678L137.719 53.7409L88.7674 26.9812ZM141.89 60.7607L162.167 47.9777L162.871 133.932C162.911 135.384 162.56 136.831 161.857 138.118C161.154 139.404 160.125 140.481 158.881 141.232L86.152 187.044L85.9493 163.102L140.52 128.754C141.127 128.371 141.63 127.835 141.978 127.199C142.325 126.563 142.505 125.85 142.499 125.132L141.89 60.7607Z" fill="#D2006E"/>
</svg>
